<svg width="318" height="104" viewBox="0 0 318 104" fill="none" xmlns="http://www.w3.org/2000/svg">
<rect x="4" y="4" width="310" height="97" rx="9" stroke="#7ED321" stroke-width="6"/>
<path d="M41.8 78.008C38.92 78.008 36.232 77.312 33.736 75.92C31.24 74.48 29.248 72.392 27.76 69.656C26.272 66.92 25.528 63.632 25.528 59.792V58.64C25.528 54.8 26.272 51.512 27.76 48.776C29.248 46.04 31.216 43.976 33.664 42.584C36.16 41.144 38.872 40.424 41.8 40.424C44.008 40.424 45.88 40.688 47.416 41.216C48.952 41.744 50.176 42.416 51.088 43.232C52.048 44.048 52.792 44.936 53.32 45.896H54.544V26.6H62.752V77H54.688V72.32H53.464C52.6 73.76 51.28 75.08 49.504 76.28C47.728 77.432 45.16 78.008 41.8 78.008ZM44.248 70.808C47.224 70.808 49.696 69.848 51.664 67.928C53.632 65.96 54.616 63.176 54.616 59.576V58.856C54.616 55.208 53.632 52.424 51.664 50.504C49.744 48.584 47.272 47.624 44.248 47.624C41.272 47.624 38.776 48.584 36.76 50.504C34.792 52.424 33.808 55.208 33.808 58.856V59.576C33.808 63.176 34.792 65.96 36.76 67.928C38.776 69.848 41.272 70.808 44.248 70.808ZM89.3684 78.008C85.8164 78.008 82.6244 77.288 79.7924 75.848C77.0084 74.36 74.8004 72.272 73.1684 69.584C71.5844 66.848 70.7924 63.584 70.7924 59.792V58.64C70.7924 54.848 71.5844 51.584 73.1684 48.848C74.8004 46.112 77.0084 44.024 79.7924 42.584C82.6244 41.144 85.8164 40.424 89.3684 40.424C92.9204 40.424 96.0884 41.144 98.8724 42.584C101.656 44.024 103.84 46.112 105.424 48.848C107.056 51.584 107.872 54.848 107.872 58.64V59.792C107.872 63.584 107.056 66.848 105.424 69.584C103.84 72.272 101.656 74.36 98.8724 75.848C96.0884 77.288 92.9204 78.008 89.3684 78.008ZM89.3684 70.664C92.3924 70.664 94.8644 69.704 96.7844 67.784C98.7044 65.816 99.6644 63.08 99.6644 59.576V58.856C99.6644 55.352 98.7044 52.64 96.7844 50.72C94.8644 48.752 92.3924 47.768 89.3684 47.768C86.3444 47.768 83.8724 48.752 81.9524 50.72C80.0324 52.64 79.0724 55.352 79.0724 58.856V59.576C79.0724 63.08 80.0324 65.816 81.9524 67.784C83.8724 69.704 86.3444 70.664 89.3684 70.664ZM115.957 77V41.432H124.093V46.4H125.317C125.941 45.056 127.069 43.784 128.701 42.584C130.333 41.384 132.805 40.784 136.117 40.784C138.853 40.784 141.277 41.408 143.389 42.656C145.501 43.904 147.133 45.632 148.285 47.84C149.485 50.048 150.085 52.664 150.085 55.688V77H141.805V56.336C141.805 53.456 141.085 51.32 139.645 49.928C138.253 48.488 136.261 47.768 133.669 47.768C130.741 47.768 128.437 48.752 126.757 50.72C125.077 52.64 124.237 55.4 124.237 59V77H115.957ZM175.805 78.008C172.253 78.008 169.109 77.264 166.373 75.776C163.685 74.24 161.573 72.104 160.037 69.368C158.549 66.584 157.805 63.344 157.805 59.648V58.784C157.805 55.04 158.549 51.8 160.037 49.064C161.525 46.328 163.613 44.216 166.301 42.728C168.989 41.192 172.085 40.424 175.589 40.424C179.045 40.424 182.069 41.192 184.661 42.728C187.253 44.216 189.269 46.328 190.709 49.064C192.149 51.8 192.869 54.992 192.869 58.64V61.592H166.157C166.253 64.376 167.237 66.608 169.109 68.288C170.981 69.968 173.285 70.808 176.021 70.808C178.709 70.808 180.701 70.232 181.997 69.08C183.293 67.88 184.277 66.536 184.949 65.048L191.789 68.576C191.117 69.872 190.133 71.264 188.837 72.752C187.589 74.192 185.909 75.44 183.797 76.496C181.685 77.504 179.021 78.008 175.805 78.008ZM166.229 55.328H184.445C184.253 52.976 183.341 51.104 181.709 49.712C180.125 48.32 178.061 47.624 175.517 47.624C172.877 47.624 170.765 48.32 169.181 49.712C167.597 51.104 166.613 52.976 166.229 55.328ZM198.508 77V67.064L218.812 49.352V48.272H199.228V41.432H227.74V51.368L207.436 69.08V70.16H228.316V77H198.508ZM252.566 78.008C249.014 78.008 245.822 77.288 242.99 75.848C240.206 74.36 237.998 72.272 236.366 69.584C234.782 66.848 233.99 63.584 233.99 59.792V58.64C233.99 54.848 234.782 51.584 236.366 48.848C237.998 46.112 240.206 44.024 242.99 42.584C245.822 41.144 249.014 40.424 252.566 40.424C256.118 40.424 259.286 41.144 262.07 42.584C264.854 44.024 267.038 46.112 268.622 48.848C270.254 51.584 271.07 54.848 271.07 58.64V59.792C271.07 63.584 270.254 66.848 268.622 69.584C267.038 72.272 264.854 74.36 262.07 75.848C259.286 77.288 256.118 78.008 252.566 78.008ZM252.566 70.664C255.59 70.664 258.062 69.704 259.982 67.784C261.902 65.816 262.862 63.08 262.862 59.576V58.856C262.862 55.352 261.902 52.64 259.982 50.72C258.062 48.752 255.59 47.768 252.566 47.768C249.542 47.768 247.07 48.752 245.15 50.72C243.23 52.64 242.27 55.352 242.27 58.856V59.576C242.27 63.08 243.23 65.816 245.15 67.784C247.07 69.704 249.542 70.664 252.566 70.664ZM283.845 78.008C282.021 78.008 280.485 77.408 279.237 76.208C278.037 75.008 277.437 73.472 277.437 71.6C277.437 69.776 278.037 68.264 279.237 67.064C280.485 65.864 282.021 65.264 283.845 65.264C285.669 65.264 287.181 65.864 288.381 67.064C289.581 68.264 290.181 69.8 290.181 71.672C290.181 73.544 289.581 75.08 288.381 76.28C287.181 77.432 285.669 78.008 283.845 78.008Z" fill="#7ED321"/>
</svg>
