<svg width="311" height="112" viewBox="0 0 311 112" fill="none" xmlns="http://www.w3.org/2000/svg">
<path d="M12.2847 24.9277L292.6 5.32612C297.834 4.96013 302.374 8.90637 302.74 14.1403L307.204 77.9844C307.57 83.2183 303.624 87.7579 298.39 88.1239L18.0745 107.726C12.8405 108.091 8.3009 104.145 7.93491 98.9113L3.4705 35.0672C3.10451 29.8333 7.05075 25.2937 12.2847 24.9277Z" stroke="#D4631E" stroke-width="5"/>
<path d="M26.7186 90.5808L26.1862 82.9673L32.9377 82.4952L30.4868 47.4448L23.7353 47.9169L23.2029 40.3035L43.6729 38.8721C50.3765 38.4034 55.6189 39.7449 59.4 42.8969C63.181 46.0488 65.3093 51.0244 65.7848 57.8238L66.4477 67.3047C66.9232 74.1041 65.5081 79.3275 62.2025 82.975C58.8969 86.6225 53.8922 88.6806 47.1886 89.1494L26.7186 90.5808ZM41.5416 81.6771L46.713 81.3154C50.7831 81.0308 53.726 79.7665 55.5419 77.5223C57.3578 75.2782 58.1268 72.169 57.8489 68.1947L57.1507 58.2111C56.8661 54.141 55.6702 51.1451 53.5631 49.2234C51.4525 47.2539 48.3622 46.4114 44.2922 46.696L39.1208 47.0576L41.5416 81.6771ZM94.7378 86.8349C88.513 87.2701 83.4126 85.8946 79.4367 82.7082C75.5052 79.4705 73.3118 74.5956 72.8565 68.0835L72.0227 56.1607C71.5674 49.6486 73.0626 44.5398 76.5086 40.8344C79.999 37.0778 84.8566 34.9818 91.0814 34.5465C97.3541 34.1079 102.456 35.5074 106.388 38.7451C110.316 41.9348 112.507 46.7857 112.963 53.2978L113.797 65.2207C114.252 71.7328 112.758 76.8655 109.316 80.6188C105.87 84.3242 101.01 86.3962 94.7378 86.8349ZM94.1954 79.0778C97.9303 78.8166 100.752 77.5367 102.66 75.238C104.613 72.888 105.459 69.8456 105.198 66.1107L104.324 53.6132C104.063 49.8784 102.803 47.0072 100.546 44.9998C98.3327 42.9412 95.3588 42.0424 91.6239 42.3036C87.9369 42.5614 85.117 43.8653 83.1641 46.2152C81.2558 48.514 80.4323 51.5308 80.6934 55.2656L81.5673 67.7631C81.8285 71.498 83.0656 74.3948 85.2786 76.4534C87.5361 78.4608 90.5084 79.3356 94.1954 79.0778ZM123.098 83.8413L119.582 33.564L136.102 32.4089L151.062 76.0396L152.211 75.9592L149.102 31.4998L157.649 30.9021L161.165 81.1794L144.717 82.3295L129.757 38.6988L128.536 38.7842L131.645 83.2436L123.098 83.8413ZM170.356 80.5367L166.84 30.2594L198.874 28.0194L199.422 35.8483L176.079 37.4806L177.003 50.6963L198.335 49.2046L198.882 57.0335L177.55 58.5252L178.499 72.1L202.201 70.4426L202.749 78.2715L170.356 80.5367ZM207.968 77.9066L207.195 66.8456L230.706 34.5989L230.636 33.5934L205.713 35.3362L205.171 27.5791L239 25.2135L239.773 36.2745L216.262 68.5212L216.332 69.5267L242.261 67.7136L242.803 75.4707L207.968 77.9066ZM268.621 74.6758C262.396 75.1111 257.296 73.7355 253.32 70.5491C249.388 67.3114 247.195 62.4366 246.739 55.9245L245.906 44.0016C245.45 37.4895 246.946 32.3807 250.391 28.6753C253.882 24.9187 258.74 22.8227 264.964 22.3875C271.237 21.9488 276.339 23.3483 280.271 26.586C284.199 29.7757 286.39 34.6267 286.846 41.1388L287.679 53.0617C288.135 59.5738 286.641 64.7064 283.199 68.4597C279.753 72.1651 274.893 74.2371 268.621 74.6758ZM268.078 66.9187C271.813 66.6576 274.635 65.3776 276.543 63.0789C278.496 60.7289 279.342 57.6865 279.081 53.9517L278.207 41.4542C277.945 37.7193 276.686 34.8481 274.429 32.8407C272.216 30.7821 269.242 29.8833 265.507 30.1445C261.82 30.4023 259 31.7062 257.047 34.0562C255.139 36.3549 254.315 39.3717 254.576 43.1066L255.45 55.604C255.711 59.3389 256.948 62.2357 259.161 64.2943C261.419 66.3017 264.391 67.1765 268.078 66.9187Z" fill="#D4631E"/>
</svg>
